# xmcd
#
# Track frame offsets: 
#        150
#        12665
#        34175
#        55185
#        71750
#
# Disc length: 1145 seconds
#
# Revision: 0
# Processed by: cddbd v1.5.2PL0 Copyright (c) Steve Scherf et al.
# Submitted via: ExactAudioCopy v1.3
#
DISCID=42047705
DTITLE=Bill Thomas Trio - Rough Draft
DYEAR=2017
DGENRE=Blues Rock
TTITLE0=You Been Bad
TTITLE1=Daddy Told Me
TTITLE2=Your Time Has Come
TTITLE3=Don't You Know
TTITLE4=I'm Gone
EXTD=
EXTT0=
EXTT1=
EXTT2=
EXTT3=
EXTT4=
PLAYORDER=
